<svg xmlns="http://www.w3.org/2000/svg" id="darkmode" viewBox="0 0 64 64">
  <path d="M46 18a13.89647 13.89647 0 0 0-6.99451 1.89087 13.935 13.935 0 0 0-15.25744.81274 1.00005 1.00005 0 0 0 1.18359 1.61231A11.94576 11.94576 0 0 1 37.147 21.16553a13.97678 13.97678 0 0 0 .00013 21.66906A11.98773 11.98773 0 0 1 22.31543 24.93213a.99995.99995 0 0 0-1.61133-1.18457A13.841 13.841 0 0 0 18 32 13.98359 13.98359 0 0 0 39.00549 44.10913a13.93184 13.93184 0 0 0 15.25623-.81323.99966.99966 0 1 0-1.18359-1.61133A11.87439 11.87439 0 0 1 46 44 12 12 0 1 1 58 32a11.87439 11.87439 0 0 1-2.31543 7.07813.99966.99966 0 1 0 1.61133 1.18359A13.85235 13.85235 0 0 0 60 32 14.01572 14.01572 0 0 0 46 18ZM32 16a.99974.99974 0 0 0 1-1V5a1 1 0 0 0-2 0V15A.99974.99974 0 0 0 32 16ZM24.56641 16.67236a.99981.99981 0 1 0 1.84765-.76465l-1.53027-3.70019a.99982.99982 0 1 0-1.84766.76465ZM19.27246 20.686A.99989.99989 0 0 0 20.68652 19.272l-7.07129-7.0708a.99989.99989 0 0 0-1.41406 1.41406ZM12.208 24.88428l3.70019 1.53027a1.00008 1.00008 0 0 0 .76368-1.84863l-3.7002-1.53028a1.00008 1.00008 0 0 0-.76367 1.84864ZM16 32a.99974.99974 0 0 0-1-1H5a1 1 0 0 0 0 2H15A.99974.99974 0 0 0 16 32ZM12.97168 40.96387l3.7002-1.53028a.99963.99963 0 1 0-.76368-1.84765L12.208 39.11621a.99963.99963 0 1 0 .76367 1.84766ZM19.27246 43.31348l-7.07129 7.07129a.99989.99989 0 1 0 1.41406 1.41406l7.07129-7.07129a.99989.99989 0 0 0-1.41406-1.41406ZM25.87207 46.78613a.99952.99952 0 0 0-1.30566.542l-1.53028 3.70019a.99963.99963 0 1 0 1.84766.76367l1.53027-3.70019A.99932.99932 0 0 0 25.87207 46.78613ZM32 48a.99943.99943 0 0 0-1 1V59a1 1 0 0 0 2 0V49A.99943.99943 0 0 0 32 48Z" fill="#000000" class="color000000 svgShape"></path>
  <path d="M39.43359 47.32813a.99963.99963 0 1 0-1.84765.76367L39.11621 51.792a.99963.99963 0 0 0 1.84766-.76367ZM38.12793 17.21436a.99842.99842 0 0 0 1.30566-.542l1.53028-3.70019a.99982.99982 0 1 0-1.84766-.76465l-1.53027 3.70019A1.00025 1.00025 0 0 0 38.12793 17.21436Z" fill="#000000" class="color000000 svgShape"></path>
</svg>
