<svg xmlns="http://www.w3.org/2000/svg" id="darkmode" viewBox="0 0 64 64">
  <defs>
    <linearGradient id="linear-gradient" x1="4" x2="60" y1="32" y2="32" gradientUnits="userSpaceOnUse">
      <stop offset="0" stop-color="#c1c8dd" class="stopColorff81ff svgShape"></stop>
      <stop offset="1" stop-color="#104373" class="stopColora93aff svgShape"></stop>
    </linearGradient>
  </defs>
  <path d="M60,32a13.85235,13.85235,0,0,1-2.7041,8.26172.99966.99966,0,1,1-1.61133-1.18359A11.87439,11.87439,0,0,0,58,32,12,12,0,1,0,46,44a11.87439,11.87439,0,0,0,7.07813-2.31543.99966.99966,0,1,1,1.18359,1.61133,13.93184,13.93184,0,0,1-15.25623.81323A13.98535,13.98535,0,0,1,20.7041,23.74756a.99995.99995,0,0,1,1.61133,1.18457A11.85692,11.85692,0,0,0,20,32,11.99063,11.99063,0,0,0,37.14716,42.83459,13.97678,13.97678,0,0,1,37.147,21.16553a11.94576,11.94576,0,0,0-12.21539,1.15039,1.00005,1.00005,0,0,1-1.18359-1.61231,13.935,13.935,0,0,1,15.25744-.81274A13.97494,13.97494,0,0,1,60,32ZM32,16a.99974.99974,0,0,0,1-1V5a1,1,0,0,0-2,0V15A.99974.99974,0,0,0,32,16Zm-7.43359.67236a.99981.99981,0,1,0,1.84765-.76465l-1.53027-3.70019a.99982.99982,0,1,0-1.84766.76465Zm-5.294,4.01368A.99989.99989,0,0,0,20.68652,19.272l-7.07129-7.0708a.99989.99989,0,0,0-1.41406,1.41406ZM12.208,24.88428l3.70019,1.53027a1.00008,1.00008,0,0,0,.76368-1.84863l-3.7002-1.53028a1.00008,1.00008,0,0,0-.76367,1.84864ZM16,32a.99974.99974,0,0,0-1-1H5a1,1,0,0,0,0,2H15A.99974.99974,0,0,0,16,32Zm-3.02832,8.96387,3.7002-1.53028a.99963.99963,0,1,0-.76368-1.84765L12.208,39.11621a.99963.99963,0,1,0,.76367,1.84766Zm6.30078,2.34961-7.07129,7.07129a.99989.99989,0,1,0,1.41406,1.41406l7.07129-7.07129a.99989.99989,0,0,0-1.41406-1.41406Zm6.59961,3.47265a.99952.99952,0,0,0-1.30566.542l-1.53028,3.70019a.99963.99963,0,1,0,1.84766.76367l1.53027-3.70019A.99932.99932,0,0,0,25.87207,46.78613ZM32,48a.99943.99943,0,0,0-1,1V59a1,1,0,0,0,2,0V49A.99943.99943,0,0,0,32,48Zm7.43359-.67187a.99963.99963,0,1,0-1.84765.76367L39.11621,51.792a.99963.99963,0,0,0,1.84766-.76367ZM38.12793,17.21436a.99842.99842,0,0,0,1.30566-.542l1.53028-3.70019a.99982.99982,0,1,0-1.84766-.76465l-1.53027,3.70019A1.00025,1.00025,0,0,0,38.12793,17.21436Z" fill="url(#linear-gradient)"></path>
</svg>
