<svg xmlns="http://www.w3.org/2000/svg" width="64" height="64" id="ethereum-eth">
  <circle cx="32" cy="32" r="26.5" fill="#FFF"></circle>
  <path fill="#FFE57F" d="M58 32c0-11.868-7.996-21.897-18.881-25.001A26.644 26.644 0 0 0 34 6.5C19.365 6.5 7.5 18.365 7.5 33c0 7.773 3.348 14.765 8.679 19.612A25.86 25.86 0 0 0 32 58c14.337 0 26-11.663 26-26z"></path>
  <path fill="#FFD740" d="M42.852 7.825C50.99 12.349 56.5 21.029 56.5 31c0 14.635-11.865 26.5-26.5 26.5-3.868 0-7.539-.836-10.852-2.325A26.373 26.373 0 0 0 32 58.5c14.635 0 26.5-11.865 26.5-26.5 0-10.767-6.426-20.027-15.648-24.175z"></path>
  <path fill="#37474F" d="M32 59C17.112 59 5 46.888 5 32S17.112 5 32 5s27 12.112 27 27-12.112 27-27 27zm0-53C17.663 6 6 17.663 6 32s11.663 26 26 26 26-11.663 26-26S46.337 6 32 6z"></path>
  <circle cx="32" cy="32" r="22.5" fill="#FFD740"></circle>
  <path fill="#FFCA28" d="M11.5 33c0-12.426 10.074-22.5 22.5-22.5 3.212 0 6.265.678 9.029 1.892A22.38 22.38 0 0 0 32 9.5C19.574 9.5 9.5 19.574 9.5 32c0 9.214 5.541 17.129 13.471 20.608C16.126 48.75 11.5 41.417 11.5 33z"></path>
  <path fill="#FFE57F" d="M41.029 11.392C47.874 15.25 52.5 22.583 52.5 31c0 12.426-10.074 22.5-22.5 22.5-3.212 0-6.265-.678-9.029-1.892A22.38 22.38 0 0 0 32 54.5c12.426 0 22.5-10.074 22.5-22.5 0-9.214-5.541-17.129-13.471-20.608z"></path>
  <path fill="#37474F" d="M32 55C19.317 55 9 44.683 9 32S19.317 9 32 9s23 10.317 23 23-10.317 23-23 23zm0-45c-12.131 0-22 9.869-22 22s9.869 22 22 22 22-9.869 22-22-9.869-22-22-22z"></path>
  <path fill="#FFF" d="m21.379 32.168 10.618-17.617 10.617 17.617-10.617 6.275z"></path>
  <path fill="#FFE57F" d="M41.926 31.994 31.997 15.52l-8.93 17.474 8.93 4.869z"></path>
  <path fill="#37474F" d="m31.997 15.52 9.929 16.475-9.929 5.869-9.93-5.869 9.93-16.475zm0-1.938L20.69 32.342l11.307 6.683 11.306-6.683-11.306-18.76z"></path>
  <path fill="#37474F" d="m31.997 28.667 9.086 3.825-9.086 5.371-9.087-5.371 9.087-3.825zm0-1.085-11.307 4.76 11.307 6.683 11.306-6.683-11.306-4.76z"></path>
  <path fill="#FFF" d="m22.456 36.109 9.541 5.637 9.547-5.638-9.546 13.446z"></path>
  <path fill="#FFE57F" d="m39.778 37.732-7.273 4.294-.508.3-.509-.3-6.266-4.294 6.776 10.957z"></path>
  <path fill="#37474F" d="m39.778 37.732-7.78 10.957-7.776-10.957 7.267 4.294.509.3.508-.3 7.272-4.294zm3.533-3.247-11.313 6.68-11.306-6.68L32 50.416v.002l11.311-15.933z"></path>
  <path fill="#37474F" d="M31.5 15.461h1v22.792h-1zM31.5 41.337h1v7.874h-1z"></path>
</svg>
