<svg xmlns="http://www.w3.org/2000/svg" width="96" height="96" fill="none" viewBox="0 0 96 96" id="ethereum-send">
  <path stroke="#000" stroke-linejoin="round" stroke-width="5" d="M65.3023 36.4307L69.7917 22.3057C70.8974 18.8268 67.6189 15.5484 64.14 16.654L11.3246 33.4403C7.66058 34.6049 7.04991 39.5309 10.3187 41.5549L24.1162 50.0982C25.5078 50.9599 27.2575 50.998 28.6853 50.1978L44.1776 41.515C45.0922 41.0024 46.0788 42.0638 45.5008 42.9386L35.8058 57.6122C34.818 59.1072 34.8113 61.0458 35.7888 62.5476L44.8593 76.4835C46.9306 79.6658 51.7692 79.0104 52.9194 75.3917L54.9729 68.9307"></path>
  <circle cx="68.835" cy="55.431" r="19.5" stroke="#000" stroke-width="5"></circle>
  <path fill="#000" d="M68.5189 61.5043L60.945 57.3479C60.435 57.068 60.2706 56.4134 60.588 55.9258L68.1619 44.2879C68.5563 43.6818 69.4437 43.6818 69.8381 44.2879L77.412 55.9258C77.7294 56.4134 77.565 57.068 77.055 57.3479L69.4811 61.5043C69.1814 61.6687 68.8186 61.6687 68.5189 61.5043Z"></path>
  <path fill="#000" d="M68.5149 63.1394C66.6865 62.1072 63.966 60.6235 62.0948 59.6084C61.619 59.3504 61.1328 59.9261 61.4659 60.3527L68.2119 68.9908C68.6122 69.5035 69.3878 69.5035 69.7881 68.9908L76.5044 60.3907C76.8389 59.9624 76.3462 59.3832 75.8698 59.6446L69.4907 63.1454C69.1858 63.3127 68.8177 63.3103 68.5149 63.1394Z"></path>
</svg>
