<svg xmlns="http://www.w3.org/2000/svg" viewBox="0 0 24 24" id="ethereum">
  <path d="M12 16.384a.492.492 0 0 1-.266-.077l-6.625-4.168a.502.502 0 0 1-.165-.678L11.569.245a.502.502 0 0 1 .862.001l6.62 11.216a.501.501 0 0 1-.164.678l-6.62 4.168a.515.515 0 0 1-.267.076zm-5.947-4.832L12 15.293l5.942-3.742L12 1.483 6.053 11.552z"></path>
  <path d="M12 24a.499.499 0 0 1-.406-.208l-6.625-9.195a.5.5 0 0 1 .672-.716L12 17.882l6.359-4.001a.5.5 0 0 1 .672.716l-6.625 9.195A.499.499 0 0 1 12 24zm-4.719-7.905L12 22.645l4.719-6.55-4.453 2.802a.497.497 0 0 1-.532 0l-4.453-2.802z"></path>
</svg>
