<svg xmlns="http://www.w3.org/2000/svg" width="96" height="96" fill="none" viewBox="0 0 96 96" id="ethereum-wallet">
  <path stroke="#000" stroke-width="5" d="M64.3021 32.5383L64.3021 14.5948C64.3021 10.8941 60.4215 8.47582 57.0993 10.1062L9.31348 33.5566"></path>
  <path stroke="#000" stroke-width="5" d="M84 51.8558V38C84 35.2386 81.7614 33 79 33H11C8.23858 33 6 35.2386 6 38V81C6 83.7614 8.23858 86 11 86H79C81.7614 86 84 83.7614 84 81V68.1635"></path>
  <path stroke="#000" stroke-width="5" d="M64 59C64 54.5817 67.5817 51 72 51H87.3766C88.2732 51 89 51.7268 89 52.6234V65.3766C89 66.2732 88.2732 67 87.3766 67H72C67.5817 67 64 63.4183 64 59V59Z"></path>
  <circle cx="72" cy="59" r="3" fill="#000"></circle>
  <path fill="#000" d="M30.489 66.8059L19.8635 60.489C19.3873 60.2058 19.232 59.5894 19.5173 59.1145L30.1428 41.427C30.5313 40.7802 31.4687 40.7802 31.8572 41.4269L42.4827 59.1145C42.768 59.5894 42.6127 60.2058 42.1365 60.489L31.511 66.8059C31.1961 66.9932 30.8039 66.9932 30.489 66.8059Z"></path>
  <path fill="#000" d="M30.4861 69.1715C27.7924 67.521 23.538 65.0134 21.033 63.5437C20.5672 63.2704 20.0622 63.8272 20.378 64.2653L30.1888 77.8747C30.5879 78.4283 31.4121 78.4283 31.8112 77.8747L41.5931 64.3053C41.9103 63.8653 41.3982 63.3059 40.932 63.5831L31.5212 69.178C31.2009 69.3684 30.8038 69.3662 30.4861 69.1715Z"></path>
</svg>
