<svg xmlns="http://www.w3.org/2000/svg" enable-background="new 0 0 93 93" viewBox="0 0 93 93" id="gallery">
  <path fill="#f1f1f1" d="M24.4599495,50.0058327c-0.1749134-2.6088066-1.3897896-5.0173149-2.5452232-7.3628311
			s-2.2980728-4.8073044-2.3105965-7.4219398c-0.0215054-4.4897633,3.39958-8.422821,7.4510117-10.3578491
			s8.6570282-2.2656078,13.1387978-2.5342102c4.6852341-0.280798,9.5214539-0.5079079,13.9359093,1.0867176
			c2.5443382,0.9190865,4.8434982,2.4113388,6.9992371,4.0457134c6.0153618,4.5605469,11.1017418,10.3410721,14.8598671,16.8878021
			c2.610611,4.5477371,4.615921,9.6316452,4.4748993,14.8735275c-0.1410294,5.2418823-2.7892303,10.6396332-7.4950104,12.9532471
			c-4.8463287,2.3827133-10.6548386,1.1452255-15.9427032,2.2418976
			c-5.9628754,1.2366714-10.8511276,5.3232346-15.7663345,8.9185104
			c-4.9152031,3.5952682-10.6227665,6.9497681-16.6826172,6.3469086c-4.0465622-0.4025726-7.6977043-2.535614-11.0882387-4.7808304
			c-3.0176601-1.9982986-6.2124147-4.5540085-6.6155295-8.1508102c-0.2628937-2.345665,0.7512689-4.6402435,1.9224343-6.6895447
			c2.2894011-4.0059814,5.2847834-7.606308,8.7984829-10.5960007
			C20.7813072,56.7544479,24.7848988,54.8523674,24.4599495,50.0058327z" class="coloreae6fc svgShape"></path>
  <path fill="#f2f2f2" d="M15.9655266,67.9675751l17.5347786-37.6034584
				c0.5285568-1.1334896,1.8759079-1.6238861,3.0093994-1.0953312l40.6825027,18.9705639
				c1.1334915,0.5285568,1.6238861,1.8759079,1.0953369,3.0093994L60.7527618,88.8522034
				c-0.5285568,1.1334915-1.8759079,1.6238861-3.0093994,1.0953293L17.0608578,70.9769745
				C15.9273682,70.4484177,15.4369717,69.1010666,15.9655266,67.9675751z" class="coloreaf3fa svgShape"></path>
  <rect width="37.871" height="41.351" x="28.191" y="38.933" fill="#ffffff" transform="rotate(-65 47.127 59.608)" class="colorffffff svgShape"></rect>
  <path fill="#808080" d="M14.5002499,68.2770157V25.7658424c0-1.2814236,1.0387993-2.3202229,2.3202229-2.3202229h45.9920731
				c1.2814255,0,2.3202209,1.0387993,2.3202209,2.3202229v42.5111732c0,1.2814255-1.0387955,2.3202209-2.3202209,2.3202209
				H16.8204727C15.5390491,70.5972366,14.5002499,69.5584412,14.5002499,68.2770157z" class="colorff6700 svgShape"></path>
  <rect width="42.351" height="38.871" x="18.641" y="27.586" fill="#ffffff" class="colorffffff svgShape"></rect>
  <polygon fill="#dbdbdb" points="33.453 42.886 21.11 66.457 45.795 66.457" class="colord3dce3 svgShape"></polygon>
  <polygon fill="#dbdbdb" points="48.595 47.495 38.666 66.457 58.524 66.457" class="colord3dce3 svgShape"></polygon>
  <circle cx="42.307" cy="36.559" r="4.06" fill="#808080" class="colorffd200 svgShape"></circle>
  <path d="M10.2744198 89.6604004H1.5000061c-.2763672 0-.5.2236328-.5.5s.2236328.5.5.5h8.7744141c.2763672 0 .5-.2236328.5-.5S10.550787 89.6604004 10.2744198 89.6604004zM91.5000076 89.6604004h-8.7744141c-.2763672 0-.5.2236328-.5.5s.2236328.5.5.5h8.7744141c.2763672 0 .5-.2236328.5-.5S91.7763748 89.6604004 91.5000076 89.6604004zM79.1523514 89.6604004H60.8215408c.1506348-.1803589.2827148-.3783569.3845215-.5966797L78.740242 51.4602051c.3125-.6689453.3457031-1.4199219.0927734-2.1137695-.2519531-.6943359-.7597656-1.2480469-1.4296875-1.5600586l-11.7669678-5.4870605V25.7666016c0-1.5599976-1.2700195-2.8200073-2.8199463-2.8200073h-46c-1.5500488 0-2.8200684 1.2600098-2.8200684 2.8200073v42.5100098c0 1.3699951.9699707 2.5 2.25 2.7600098.0031738.0006714.0062256.0003052.0092773.0009766.1812744.1513672.3740234.289917.5939941.392334l39.0952148 18.2304688H13.847662c-.2763672 0-.5.2236328-.5.5s.2236328.5.5.5h65.3046875c.2763672 0 .5-.2236328.5-.5S79.4287186 89.6604004 79.1523514 89.6604004zM76.9814529 48.692627c.4267578.1992188.7509766.5527344.9121094.9956055s.1396484.921875-.0595703 1.3491211L60.2998123 88.6408691c-.3984375.8530273-1.4824219 1.2548828-2.3457031.8535156L18.5002499 71.0966187h7.2758789l31.875246 14.8640747c.0664063.03125.1386719.046875.2109375.046875.0576172 0 .1152344-.0097656.1708984-.0302734.125-.0454102.2265625-.138176.2822266-.2583008l16.0048828-34.3227539c.1171875-.2504883.0087891-.5478516-.2421875-.6645508l-8.4417725-3.9364624v-3.3928833L76.9814529 48.692627zM28.1412411 71.0966187h34.6751709c.5084229 0 .9768066-.1296387 1.3857422-.3682861l-6.5820313 14.1146851L28.1412411 71.0966187zM65.6363602 67.652832V47.8981323l7.5667725 3.5283813L65.6363602 67.652832zM14.9963436 68.2766113V25.7666016c0-1 .8200684-1.8200073 1.8200684-1.8200073h46c1 0 1.8199463.8200073 1.8199463 1.8200073v42.5100098c0 1-.8199463 1.8200073-1.8199463 1.8200073h-46C15.816412 70.0966187 14.9963436 69.2766113 14.9963436 68.2766113z" fill="#000000" class="color000000 svgShape"></path>
  <path d="M18.646246,66.956604h2.460083h17.5599384c6.8178749,0,12.9096413,0,19.8601074,0h2.4699707
						c0.2700195,0,0.5-0.2199707,0.5-0.5V27.5866089c0-0.2799683-0.2299805-0.5-0.5-0.5H18.646246
						c-0.2799072,0-0.5,0.2200317-0.5,0.5V66.456604C18.146246,66.7366333,18.3663387,66.956604,18.646246,66.956604z
						 M21.936285,65.956604l11.5200214-21.9899902l8.2099609,15.6900024l-3.2999268,6.2999878H21.936285z M39.4863358,65.956604
						l2.7399902-5.2299805l0.5700684-1.0800171l5.7999268-11.0700073l9.0999756,17.3800049
						C51.3915215,65.956604,45.7913055,65.956604,39.4863358,65.956604z M19.146246,28.0866089h41.3500977V65.956604h-1.6699219
						l-9.7900391-18.6900024c-0.1700439-0.3300171-0.7099609-0.3300171-0.880127,0l-5.9199219,11.3099976l-8.3400879-15.9199829
						c-0.1699219-0.3300171-0.7099609-0.3300171-0.8898926,0L20.8064022,65.956604H19.146246V28.0866089z" fill="#000000" class="color000000 svgShape"></path>
  <path d="M42.3064041,41.1166382c2.5100098,0,4.5599365-2.0400391,4.5599365-4.5599976
						c0-2.5100098-2.0499268-4.5600586-4.5599365-4.5600586s-4.5600586,2.0500488-4.5600586,4.5600586
						C37.7463455,39.0765991,39.7963943,41.1166382,42.3064041,41.1166382z M42.3064041,32.996582
						c1.9599609,0,3.5599365,1.6000366,3.5599365,3.5600586c0,1.9699707-1.5999756,3.5599976-3.5599365,3.5599976
						c-1.960083,0-3.5600586-1.5900269-3.5600586-3.5599976C38.7463455,34.5966187,40.3463211,32.996582,42.3064041,32.996582z" fill="#000000" class="color000000 svgShape"></path>
  <g fill="#000000" class="color000000 svgShape">
    <path fill="#a3a3a3" d="M69.9658279,16.8962402c-1.3037109,0-2.3652344-1.0610352-2.3652344-2.3652344
				c0-0.1381836-0.1123047-0.25-0.25-0.25s-0.25,0.1118164-0.25,0.25c0,1.3041992-1.0615234,2.3652344-2.3652344,2.3652344
				c-0.1376953,0-0.25,0.1118164-0.25,0.25s0.1123047,0.25,0.25,0.25c1.3037109,0,2.3652344,1.0610352,2.3652344,2.3652344
				c0,0.1381836,0.1123047,0.25,0.25,0.25s0.25-0.1118164,0.25-0.25c0-1.3041992,1.0615234-2.3652344,2.3652344-2.3652344
				c0.1376953,0,0.25-0.1118164,0.25-0.25S70.1035233,16.8962402,69.9658279,16.8962402z M67.3505936,18.6020508
				c-0.2883301-0.647583-0.8082275-1.1674805-1.4558105-1.4558105c0.647583-0.2883301,1.1674805-0.8082886,1.4558105-1.4558716
				c0.2883301,0.647583,0.8083496,1.1675415,1.4558105,1.4558716
				C68.1589432,17.4345703,67.6389236,17.9544678,67.3505936,18.6020508z" class="color7348ff svgShape"></path>
    <path fill="#808080" d="M54.7578201,4.3395996h-1.75v-1.75c0-0.1381836-0.1123047-0.25-0.25-0.25s-0.25,0.1118164-0.25,0.25v1.75
				h-1.75c-0.1376953,0-0.25,0.1118164-0.25,0.25s0.1123047,0.25,0.25,0.25h1.75v1.75c0,0.1381836,0.1123047,0.25,0.25,0.25
				s0.25-0.1118164,0.25-0.25v-1.75h1.75c0.1376953,0,0.25-0.1118164,0.25-0.25S54.8955154,4.3395996,54.7578201,4.3395996z" class="colorff6700 svgShape"></path>
    <path fill="#969696" d="M24.5537167,10.6086426c-1.3037109,0-2.3652344-1.0610352-2.3652344-2.3652344
				c0-0.1381836-0.1123047-0.25-0.25-0.25s-0.25,0.1118164-0.25,0.25c0,1.3041992-1.0615234,2.3652344-2.3652344,2.3652344
				c-0.1376953,0-0.25,0.1118164-0.25,0.25s0.1123047,0.25,0.25,0.25c1.3037109,0,2.3652344,1.0610352,2.3652344,2.3652344
				c0,0.1381836,0.1123047,0.25,0.25,0.25s0.25-0.1118164,0.25-0.25c0-1.3041992,1.0615234-2.3652344,2.3652344-2.3652344
				c0.1376953,0,0.25-0.1118164,0.25-0.25S24.691412,10.6086426,24.5537167,10.6086426z M21.9384823,12.3144531
				c-0.2883301-0.647583-0.8082275-1.1674805-1.4558105-1.4558105c0.647583-0.2883301,1.1674805-0.8082886,1.4558105-1.4558716
				c0.2883301,0.647583,0.8083496,1.1675415,1.4558105,1.4558716
				C22.7468319,11.1469727,22.2268124,11.6668701,21.9384823,12.3144531z" class="colorff2e57 svgShape"></path>
    <path fill="#414141" d="M9.0781307,30.3049316c-1.3037105,0-2.3652339-1.0610352-2.3652339-2.3647461
				c0-0.1381836-0.1123047-0.25-0.25-0.25s-0.25,0.1118164-0.25,0.25c0,1.3037109-1.0615234,2.3647461-2.3652344,2.3647461
				c-0.1376953,0-0.25,0.1118164-0.25,0.25s0.1123047,0.25,0.25,0.25c1.3037109,0,2.3652344,1.0610352,2.3652344,2.3652344
				c0,0.1381836,0.1123047,0.25,0.25,0.25s0.25-0.1118164,0.25-0.25c0-1.3041992,1.0615234-2.3652344,2.3652339-2.3652344
				c0.1376953,0,0.25-0.1118164,0.25-0.25S9.215826,30.3049316,9.0781307,30.3049316z M6.4628968,32.0107422
				c-0.2883301-0.647522-0.8082275-1.1674805-1.4558105-1.4558105c0.647583-0.288269,1.1674805-0.8082275,1.4558105-1.4556274
				c0.2883301,0.6473999,0.8083496,1.1673584,1.4558105,1.4556274C7.2712464,30.8432617,6.7512269,31.3632202,6.4628968,32.0107422z
				" class="color2e1c66 svgShape"></path>
    <path fill="#676767" d="M82.4052811,30.3049316c-1.3037109,0-2.3652344-1.0610352-2.3652344-2.3647461
				c0-0.1381836-0.1123047-0.25-0.25-0.25s-0.25,0.1118164-0.25,0.25c0,1.3037109-1.0615234,2.3647461-2.3652344,2.3647461
				c-0.1376953,0-0.25,0.1118164-0.25,0.25s0.1123047,0.25,0.25,0.25c1.3037109,0,2.3652344,1.0610352,2.3652344,2.3652344
				c0,0.1381836,0.1123047,0.25,0.25,0.25s0.25-0.1118164,0.25-0.25c0-1.3041992,1.0615234-2.3652344,2.3652344-2.3652344
				c0.1376953,0,0.25-0.1118164,0.25-0.25S82.5429764,30.3049316,82.4052811,30.3049316z M79.7900467,32.0107422
				c-0.2883301-0.647522-0.8082275-1.1674805-1.4558105-1.4558105c0.647583-0.288269,1.1674805-0.8082275,1.4558105-1.4556274
				c0.2883301,0.6473999,0.8083496,1.1673584,1.4558105,1.4556274
				C80.5983963,30.8432617,80.0783768,31.3632202,79.7900467,32.0107422z" class="color00ce4a svgShape"></path>
  </g>
</svg>
